<svg width="48" height="48" viewBox="0 0 48 48" fill="none" xmlns="http://www.w3.org/2000/svg">
<circle cx="24" cy="24" r="20" fill="#DFCCC6"/>
<circle opacity="0.4" cx="24" cy="24" r="20" fill="url(#paint0_linear_576_5383)"/>
<circle opacity="0.5" cx="24" cy="24" r="17" stroke="url(#paint1_linear_576_5383)" stroke-width="2"/>
<circle cx="24" cy="24" r="20" stroke="#C2A499" stroke-width="4"/>
<g filter="url(#filter0_d_576_5383)">
<path d="M22.514 14.4096C22.9777 13.2476 23.2096 12.6666 23.5414 12.4954C23.8291 12.3469 24.1709 12.3469 24.4586 12.4954C24.7904 12.6666 25.0223 13.2476 25.486 14.4095L29.077 23.4069C29.1645 23.626 29.2082 23.7356 29.2255 23.8487C29.2408 23.949 29.2408 24.051 29.2255 24.1513C29.2082 24.2644 29.1645 24.374 29.077 24.5931L25.486 33.5904C25.0223 34.7524 24.7904 35.3334 24.4586 35.5046C24.1709 35.6531 23.8291 35.6531 23.5414 35.5046C23.2096 35.3334 22.9777 34.7524 22.514 33.5904L18.923 24.5931C18.8355 24.374 18.7918 24.2644 18.7745 24.1513C18.7592 24.051 18.7592 23.949 18.7745 23.8487C18.7918 23.7356 18.8355 23.626 18.923 23.4069L22.514 14.4096Z" fill="white"/>
<path d="M24.0304 13.5313C24.1632 13.7945 24.3181 14.1812 24.5573 14.7805L28.1487 23.7774C28.1956 23.8948 28.2179 23.9538 28.233 23.997C28.2333 23.998 28.234 23.9988 28.2344 23.9998C28.234 24.0008 28.2341 24.0021 28.2337 24.0032C28.2186 24.0465 28.1949 24.1054 28.148 24.2228L24.5573 33.2191C24.3182 33.8181 24.1632 34.2051 24.0304 34.4683C24.0204 34.4881 24.0088 34.5055 24 34.5221C23.9912 34.5055 23.9796 34.4881 23.9696 34.4683C23.8368 34.2051 23.6818 33.8181 23.4427 33.2191L19.852 24.2228C19.8051 24.1054 19.7814 24.0465 19.7663 24.0032C19.7659 24.0021 19.766 24.0008 19.7656 23.9998C19.766 23.9988 19.7667 23.998 19.767 23.997C19.7821 23.9538 19.8044 23.8948 19.8513 23.7774L23.4427 14.7805C23.6819 14.1812 23.8368 13.7945 23.9696 13.5313C23.9799 13.5109 23.9909 13.493 24 13.476C24.0091 13.493 24.0201 13.5109 24.0304 13.5313Z" stroke="url(#paint2_linear_576_5383)" stroke-width="2"/>
</g>
<defs>
<filter id="filter0_d_576_5383" x="14.763" y="10.384" width="18.474" height="31.2319" filterUnits="userSpaceOnUse" color-interpolation-filters="sRGB">
<feFlood flood-opacity="0" result="BackgroundImageFix"/>
<feColorMatrix in="SourceAlpha" type="matrix" values="0 0 0 0 0 0 0 0 0 0 0 0 0 0 0 0 0 0 127 0" result="hardAlpha"/>
<feOffset dy="2"/>
<feGaussianBlur stdDeviation="2"/>
<feComposite in2="hardAlpha" operator="out"/>
<feColorMatrix type="matrix" values="0 0 0 0 0.5 0 0 0 0 0.5 0 0 0 0 0.5 0 0 0 0.5 0"/>
<feBlend mode="normal" in2="BackgroundImageFix" result="effect1_dropShadow_576_5383"/>
<feBlend mode="normal" in="SourceGraphic" in2="effect1_dropShadow_576_5383" result="shape"/>
</filter>
<linearGradient id="paint0_linear_576_5383" x1="4" y1="4" x2="44" y2="44" gradientUnits="userSpaceOnUse">
<stop stop-color="white" stop-opacity="0"/>
<stop offset="0.254808" stop-color="white" stop-opacity="0"/>
<stop offset="0.5" stop-color="white"/>
<stop offset="0.5" stop-color="white" stop-opacity="0"/>
</linearGradient>
<linearGradient id="paint1_linear_576_5383" x1="24" y1="6" x2="24" y2="42" gradientUnits="userSpaceOnUse">
<stop stop-color="white"/>
<stop offset="1" stop-color="white" stop-opacity="0"/>
</linearGradient>
<linearGradient id="paint2_linear_576_5383" x1="30.6569" y1="17.3431" x2="17.3431" y2="30.6568" gradientUnits="userSpaceOnUse">
<stop stop-color="white" stop-opacity="0"/>
<stop offset="1" stop-color="#F0F0F0"/>
</linearGradient>
</defs>
</svg>
