<svg width="48" height="51" viewBox="0 0 48 51" fill="none" xmlns="http://www.w3.org/2000/svg">
<path opacity="0.5" d="M25.2181 50.5428C24.4997 51.0945 23.5003 51.0945 22.7819 50.5428L13.8095 43.6525C13.6704 43.5457 13.518 43.4576 13.356 43.3906L2.90255 39.0655C2.06557 38.7192 1.56583 37.8536 1.68441 36.9556L3.16542 25.7401C3.18837 25.5663 3.18837 25.3902 3.16542 25.2164L1.68441 14.001C1.56583 13.103 2.06558 12.2374 2.90256 11.8911L13.356 7.56592C13.518 7.49889 13.6704 7.41086 13.8095 7.30409L22.7819 0.413745C23.5003 -0.137948 24.4997 -0.137948 25.2181 0.413746L34.1905 7.30409C34.3296 7.41086 34.4821 7.49889 34.644 7.56592L45.0974 11.8911C45.9344 12.2374 46.4342 13.103 46.3156 14.001L44.8346 25.2164C44.8116 25.3902 44.8116 25.5663 44.8346 25.7401L46.3156 36.9556C46.4342 37.8536 45.9344 38.7192 45.0974 39.0655L34.644 43.3906C34.482 43.4577 34.3296 43.5457 34.1905 43.6525L25.2181 50.5428Z" fill="#E7ACD1"/>
<circle cx="24" cy="25.4783" r="20" fill="#F3BFD2"/>
<circle opacity="0.4" cx="24" cy="25.4783" r="20" fill="url(#paint0_linear_576_5383)"/>
<circle cx="24" cy="25.4783" r="20" stroke="#DE94C2" stroke-width="4"/>
<circle opacity="0.5" cx="24" cy="25.4783" r="17" stroke="url(#paint1_linear_576_5383)" stroke-width="2"/>
<g filter="url(#filter0_d_576_5383)">
<path d="M23.1518 12.8365C23.5434 12.2094 24.4566 12.2094 24.8482 12.8365L27.9182 17.7524C28.0944 18.0345 28.3993 18.2106 28.7317 18.2221L34.524 18.4228C35.2629 18.4484 35.7195 19.2392 35.3722 19.8919L32.6499 25.0086C32.4937 25.3022 32.4937 25.6543 32.6499 25.948L35.3722 31.0646C35.7195 31.7173 35.2629 32.5081 34.524 32.5337L28.7317 32.7345C28.3993 32.746 28.0944 32.922 27.9182 33.2042L24.8482 38.1201C24.4566 38.7472 23.5434 38.7472 23.1518 38.1201L20.0818 33.2042C19.9056 32.922 19.6007 32.746 19.2683 32.7345L13.476 32.5337C12.7371 32.5081 12.2805 31.7173 12.6278 31.0646L15.3501 25.948C15.5063 25.6543 15.5063 25.3022 15.3501 25.0086L12.6278 19.8919C12.2805 19.2392 12.7371 18.4484 13.476 18.4228L19.2683 18.2221C19.6007 18.2106 19.9056 18.0345 20.0818 17.7524L23.1518 12.8365Z" fill="white"/>
<path d="M27.0703 18.282C27.4227 18.8462 28.0324 19.1984 28.6973 19.2214L34.4893 19.4226L31.7666 24.5388C31.4542 25.126 31.4542 25.8305 31.7666 26.4177L34.4893 31.5339L28.6973 31.7351C28.0324 31.7581 27.4227 32.1103 27.0703 32.6746L24 37.5906L20.9297 32.6746C20.5773 32.1103 19.9676 31.7581 19.3027 31.7351L13.5107 31.5339L16.2334 26.4177C16.5458 25.8305 16.5458 25.126 16.2334 24.5388L13.5107 19.4226L19.3027 19.2214C19.9676 19.1984 20.5773 18.8462 20.9297 18.282L24 13.366L27.0703 18.282Z" stroke="url(#paint2_linear_576_5383)" stroke-width="2"/>
</g>
<path d="M22.7092 21.2406C23.1459 20.6444 23.3642 20.3463 23.6333 20.2403C23.8689 20.1474 24.1311 20.1474 24.3667 20.2403C24.6358 20.3463 24.8541 20.6444 25.2908 21.2406L27.7022 24.5328C27.9509 24.8724 28.0753 25.0422 28.1233 25.2281C28.1657 25.3922 28.1657 25.5643 28.1233 25.7284C28.0753 25.9143 27.9509 26.0841 27.7022 26.4237L25.2908 29.716C24.8541 30.3121 24.6358 30.6102 24.3667 30.7163C24.1311 30.8091 23.8689 30.8091 23.6333 30.7163C23.3642 30.6102 23.1459 30.3121 22.7092 29.716L20.2978 26.4237C20.0491 26.0841 19.9247 25.9143 19.8767 25.7284C19.8343 25.5643 19.8343 25.3922 19.8767 25.2281C19.9247 25.0422 20.0491 24.8724 20.2978 24.5328L22.7092 21.2406Z" fill="#E094B2"/>
<path opacity="0.5" d="M66.5899 47.7483C65.6615 47.8923 64.7581 47.3707 64.4186 46.4947L60.9824 37.6292C60.8718 37.3437 60.6971 37.0875 60.4717 36.8802L53.4744 30.4426C52.783 29.8065 52.6276 28.775 53.1007 27.9634L57.8897 19.7494C58.0439 19.4849 58.1353 19.1885 58.1569 18.883L58.8272 9.39859C58.8935 8.46147 59.603 7.69676 60.5326 7.56068L69.9404 6.18345C70.2434 6.1391 70.5321 6.02579 70.7843 5.85223L78.6175 0.462852C79.3915 -0.0696508 80.4318 0.00830587 81.1177 0.650215L88.0602 7.14687C88.2837 7.35609 88.5524 7.51117 88.8453 7.60018L97.9428 10.3642C98.8417 10.6373 99.4294 11.4992 99.3552 12.4357L98.6044 21.9142C98.5803 22.2194 98.6265 22.5261 98.7396 22.8107L102.251 31.6467C102.598 32.5197 102.29 33.5166 101.512 34.0425L93.6331 39.3653C93.3794 39.5367 93.1685 39.764 93.0165 40.0299L88.2974 48.2842C87.8311 49.0998 86.86 49.4809 85.9635 49.2002L76.8898 46.3591C76.5976 46.2676 76.2883 46.2445 75.9857 46.2914L66.5899 47.7483Z" fill="#F5A9AA"/>
<path opacity="0.2" d="M89.5321 2.99685C90.4605 2.85289 91.3639 3.37448 91.7034 4.25045L95.1788 13.2173C95.2895 13.5028 95.4642 13.759 95.6895 13.9663L102.767 20.4775C103.458 21.1135 103.614 22.1451 103.14 22.9567L98.2968 31.2646C98.1426 31.5291 98.0512 31.8255 98.0296 32.1309L97.3516 41.7237C97.2853 42.6609 96.5758 43.4256 95.6462 43.5617L86.1309 44.9546C85.8279 44.999 85.5392 45.1123 85.287 45.2858L77.3642 50.7368C76.5903 51.2693 75.55 51.1914 74.8641 50.5494L67.8423 43.9785C67.6187 43.7693 67.3501 43.6142 67.0571 43.5252L57.8556 40.7296C56.9568 40.4565 56.3691 39.5946 56.4433 38.6581L57.2026 29.0713C57.2268 28.7661 57.1806 28.4594 57.0675 28.1749L53.5162 19.2378C53.1692 18.3648 53.4767 17.3679 54.2552 16.842L62.2238 11.4584C62.4775 11.287 62.6885 11.0597 62.8405 10.7938L67.6135 2.44516C68.0798 1.62958 69.0509 1.24846 69.9474 1.52918L79.1248 4.40272C79.417 4.49421 79.7263 4.51739 80.0289 4.47047L89.5321 2.99685Z" fill="#FEBDBE"/>
<defs>
<filter id="filter0_d_576_5383" x="8.50936" y="10.3661" width="30.9813" height="34.2242" filterUnits="userSpaceOnUse" color-interpolation-filters="sRGB">
<feFlood flood-opacity="0" result="BackgroundImageFix"/>
<feColorMatrix in="SourceAlpha" type="matrix" values="0 0 0 0 0 0 0 0 0 0 0 0 0 0 0 0 0 0 127 0" result="hardAlpha"/>
<feOffset dy="2"/>
<feGaussianBlur stdDeviation="2"/>
<feComposite in2="hardAlpha" operator="out"/>
<feColorMatrix type="matrix" values="0 0 0 0 0.5 0 0 0 0 0.5 0 0 0 0 0.5 0 0 0 0.5 0"/>
<feBlend mode="normal" in2="BackgroundImageFix" result="effect1_dropShadow_576_5383"/>
<feBlend mode="normal" in="SourceGraphic" in2="effect1_dropShadow_576_5383" result="shape"/>
</filter>
<linearGradient id="paint0_linear_576_5383" x1="4" y1="5.47827" x2="44" y2="45.4783" gradientUnits="userSpaceOnUse">
<stop stop-color="white" stop-opacity="0"/>
<stop offset="0.254808" stop-color="white" stop-opacity="0"/>
<stop offset="0.5" stop-color="white"/>
<stop offset="0.5" stop-color="white" stop-opacity="0"/>
</linearGradient>
<linearGradient id="paint1_linear_576_5383" x1="24" y1="7.47827" x2="24" y2="43.4783" gradientUnits="userSpaceOnUse">
<stop stop-color="white"/>
<stop offset="1" stop-color="white" stop-opacity="0"/>
</linearGradient>
<linearGradient id="paint2_linear_576_5383" x1="24" y1="11.4783" x2="24" y2="39.4783" gradientUnits="userSpaceOnUse">
<stop stop-color="white" stop-opacity="0"/>
<stop offset="1" stop-color="#F0F0F0"/>
</linearGradient>
</defs>
</svg>
