<svg xmlns="http://www.w3.org/2000/svg" width="1245" height="1076" fill="none" viewBox="0 0 1245 1076">
  <g filter="url(#a)">
    <path fill="#F5F9FF" d="M207.759 134.643C79.366 153.304 4.809 371.617 41.238 622.262c36.429 250.644 170.047 438.698 298.44 420.038 69.436-10.09 123.122-78.57 152.03-178.983 56.297 88.035 127.255 138.393 196.691 128.303 69.437-10.092 123.128-78.574 152.03-178.986 56.291 88.036 127.255 138.394 196.691 128.303 128.39-18.661 202.95-236.974 166.52-487.619-36.43-250.644-170.05-438.702-298.439-420.041-69.436 10.092-123.127 78.574-152.03 178.986-56.29-88.03-127.255-138.395-196.691-128.303-69.436 10.092-123.122 78.573-152.03 178.986-56.296-88.029-127.255-138.395-196.691-128.303Z"/>
  </g>
  <defs>
    <filter id="a" width="1244.88" height="1075.58" x="0" y="0" color-interpolation-filters="sRGB" filterUnits="userSpaceOnUse">
      <feFlood flood-opacity="0" result="BackgroundImageFix"/>
      <feBlend in="SourceGraphic" in2="BackgroundImageFix" result="shape"/>
      <feGaussianBlur result="effect1_foregroundBlur_12_611"/>
    </filter>
  </defs>
</svg>
