<svg xmlns="http://www.w3.org/2000/svg" width="76" height="76" fill="none" viewBox="0 0 76 76">
  <g clip-path="url(#a)">
    <mask id="b" width="76" height="76" x="0" y="0" maskUnits="userSpaceOnUse" style="mask-type:alpha">
      <path fill="#fff" d="M.828 71.278C.06 73.756-.323 74.995.34 75.659c.664.664 1.903.28 4.381-.486l19.374-5.997a9.34 9.34 0 0 0 6.161-6.16L38 38l-25.015 7.743a9.34 9.34 0 0 0-6.161 6.16L.828 71.279Z"/>
      <path fill="#fff" d="m38 38 25.014-7.743a9.34 9.34 0 0 0 6.161-6.16l5.997-19.375c.767-2.478 1.15-3.717.487-4.38-.664-.665-1.903-.281-4.381.485L51.904 6.824a9.34 9.34 0 0 0-6.161 6.161L38 38l-7.742-25.014a9.341 9.341 0 0 0-6.161-6.161L4.723.827C2.245.06 1.005-.323.342.341c-.665.664-.281 1.903.486 4.381l5.996 19.374a9.34 9.34 0 0 0 6.162 6.16L38 38l7.743 25.014a9.34 9.34 0 0 0 6.16 6.161l19.375 5.997c2.478.767 3.717 1.15 4.381.487.664-.664.28-1.904-.487-4.382l-5.996-19.374a9.342 9.342 0 0 0-6.161-6.16L38 38Z"/>
    </mask>
    <g mask="url(#b)">
      <path fill="#fff" d="M76 76H0V0h76v76Z"/>
      <path fill="#FFF500" fill-opacity=".44" d="M76 76H0V0h76v76Z"/>
      <g filter="url(#c)">
        <path fill="#FF00D6" d="M38 53.2c18.468 0 33.44 8.421 33.44 18.81 0 10.388-14.971 18.81-33.44 18.81-18.468 0-33.44-8.421-33.44-18.81S19.532 53.2 38 53.2Z"/>
        <path fill="#07FFE1" d="M21.85-1.9c13.536 0 24.51 7.656 24.51 17.1 0 9.444-10.974 17.1-24.51 17.1-13.537 0-24.51-7.656-24.51-17.1 0-9.444 10.973-17.1 24.51-17.1Z"/>
        <path fill="#06F" d="M80.18 26.22H35.34v-45.6h44.84v45.6Z"/>
      </g>
    </g>
  </g>
  <defs>
    <clipPath id="a">
      <path fill="#fff" d="M0 76h76V0H0z"/>
    </clipPath>
    <filter id="c" width="178.84" height="206.2" x="-50.66" y="-67.38" color-interpolation-filters="sRGB" filterUnits="userSpaceOnUse">
      <feFlood flood-opacity="0" result="BackgroundImageFix"/>
      <feBlend in="SourceGraphic" in2="BackgroundImageFix" result="shape"/>
      <feGaussianBlur result="effect1_foregroundBlur_12_659" stdDeviation="24"/>
    </filter>
  </defs>
</svg>
