<svg xmlns="http://www.w3.org/2000/svg" width="76" height="76" fill="none" viewBox="0 0 76 76">
  <mask id="a" width="76" height="76" x="0" y="0" maskUnits="userSpaceOnUse" style="mask-type:alpha">
    <path fill="#fff" fill-rule="evenodd" d="M38 27.36c-5.876 0-10.64 4.764-10.64 10.64S32.124 48.64 38 48.64 48.64 43.876 48.64 38 43.876 27.36 38 27.36ZM0 38C0 17.013 17.013 0 38 0s38 17.013 38 38-17.013 38-38 38S0 58.987 0 38Z" clip-rule="evenodd"/>
  </mask>
  <g mask="url(#a)">
    <path fill="#fff" d="M76 0H0v76h76V0Z"/>
    <path fill="url(#b)" fill-opacity=".55" d="M76 0H0v76h76V0Z"/>
    <g filter="url(#c)">
      <path fill="#FFE500" fill-opacity=".74" d="M44.46 29.26H-8.36v49.4h52.82v-49.4Z"/>
      <path fill="#EE46D3" d="M66.12-22.8H-6.46v52.44h72.58V-22.8Z"/>
      <path fill="#00F0FF" d="M40.862 82.27c14.592 0 26.422-8.124 26.422-18.145 0-10.021-11.83-18.145-26.422-18.145-14.593 0-26.422 8.124-26.422 18.145 0 10.021 11.83 18.145 26.422 18.145Z"/>
    </g>
  </g>
  <defs>
    <linearGradient id="b" x1="76" x2="0" y1="0" y2="76" gradientUnits="userSpaceOnUse">
      <stop stop-color="#FF1F00"/>
      <stop offset="1" stop-color="#FFD600"/>
    </linearGradient>
    <filter id="c" width="171.644" height="201.07" x="-56.36" y="-70.8" color-interpolation-filters="sRGB" filterUnits="userSpaceOnUse">
      <feFlood flood-opacity="0" result="BackgroundImageFix"/>
      <feBlend in="SourceGraphic" in2="BackgroundImageFix" result="shape"/>
      <feGaussianBlur result="effect1_foregroundBlur_12_685" stdDeviation="24"/>
    </filter>
  </defs>
</svg>
