<svg xmlns="http://www.w3.org/2000/svg" width="234" height="234" fill="none" viewBox="0 0 234 234">
  <g clip-path="url(#a)">
    <path fill="#1270FF" d="M256.326-163.983c-25.93-25.93-88.614-5.29-140.007 46.103C64.926-66.486 44.285-3.803 70.216 22.127c14.023 14.024 38.794 14.426 66.717 3.71-10.716 27.925-10.313 52.695 3.71 66.718 14.024 14.024 38.796 14.427 66.718 3.71-10.718 27.924-10.313 52.695 3.71 66.718 25.931 25.931 88.614 5.29 140.007-46.103 51.394-51.393 72.034-114.077 46.104-140.007-14.024-14.024-38.796-14.427-66.718-3.71 10.717-27.923 10.313-52.695-3.71-66.718-14.023-14.023-38.794-14.426-66.718-3.71 10.716-27.924 10.313-52.695-3.71-66.718Z"/>
  </g>
  <defs>
    <clipPath id="a">
      <path fill="#fff" d="M0-1.56 232.638-234.2 467.398.561l-232.64 232.638z"/>
    </clipPath>
  </defs>
</svg>
