<svg xmlns="http://www.w3.org/2000/svg" width="96" height="96" fill="none" viewBox="0 0 96 96">
  <mask id="a" width="88" height="96" x="4" y="0" maskUnits="userSpaceOnUse" style="mask-type:alpha">
    <path fill="#fff" d="M62.4 0c15.906 0 28.8 12.894 28.8 28.8v4.8c0 15.902-12.888 28.794-28.788 28.8H91.2V96H4.8V62.4c0-15.9 12.885-28.79 28.783-28.8H4.8C4.8 15.043 19.843 0 38.4 0h24Z"/>
  </mask>
  <g mask="url(#a)">
    <path fill="#fff" d="M96 0H0v96h96V0Z"/>
    <path fill="url(#b)" d="M96 0H0v96h96V0Z"/>
    <path fill="url(#c)" d="M96 0H0v96h96V0Z"/>
  </g>
  <defs>
    <radialGradient id="b" cx="0" cy="0" r="1" gradientTransform="rotate(116.694 34.091 42.214) scale(95.6323)" gradientUnits="userSpaceOnUse">
      <stop stop-color="#FFF500"/>
      <stop offset="1" stop-color="#FF00D6" stop-opacity="0"/>
    </radialGradient>
    <radialGradient id="c" cx="0" cy="0" r="1" gradientTransform="rotate(48.452 -5.8 17.04) scale(107.109)" gradientUnits="userSpaceOnUse">
      <stop stop-color="#FF00D6"/>
      <stop offset=".461" stop-color="#FF7171" stop-opacity=".84"/>
      <stop offset="1" stop-color="#FFF500" stop-opacity="0"/>
    </radialGradient>
  </defs>
</svg>
