<svg xmlns="http://www.w3.org/2000/svg" width="93" height="64" fill="none" viewBox="0 0 93 64">
  <g clip-path="url(#a)">
    <path fill="#1B71FF" d="M35.541 3.523c-3.925 0-7.108 6.309-7.108 14.092 0 7.782 3.183 14.091 7.108 14.091 2.123 0 4.029-1.845 5.332-4.77 1.302 2.925 3.208 4.77 5.33 4.77 2.124 0 4.03-1.845 5.332-4.77 1.302 2.925 3.208 4.77 5.331 4.77 3.926 0 7.108-6.309 7.108-14.091 0-7.783-3.182-14.092-7.108-14.092-2.123 0-4.029 1.845-5.331 4.77-1.302-2.925-3.208-4.77-5.331-4.77s-4.029 1.845-5.331 4.77c-1.303-2.925-3.209-4.77-5.332-4.77Z"/>
  </g>
  <path fill="#000" fill-rule="evenodd" d="M34.673 44.91c1.693 0 3.172.307 4.436.92 1.264.615 2.25 1.473 2.957 2.575.707 1.103 1.061 2.386 1.061 3.852 0 1.465-.354 2.75-1.061 3.851-.708 1.103-1.694 1.961-2.957 2.575-1.264.614-2.743.92-4.436.92-1.68 0-3.16-.306-4.436-.92-1.263-.614-2.25-1.472-2.957-2.575-.695-1.102-1.042-2.386-1.042-3.851 0-1.466.347-2.75 1.042-3.852.708-1.102 1.694-1.96 2.957-2.574 1.277-.614 2.755-.92 4.436-.92Zm0 3.476c-.91 0-1.7.157-2.37.47-.67.313-1.187.758-1.554 1.334-.366.577-.55 1.265-.55 2.067 0 .802.184 1.49.55 2.067.367.576.885 1.02 1.555 1.334.67.313 1.46.47 2.369.47.922 0 1.719-.157 2.389-.47.67-.314 1.181-.758 1.535-1.334.366-.576.55-1.265.55-2.067 0-.802-.184-1.49-.55-2.067-.354-.576-.866-1.02-1.535-1.334-.67-.313-1.466-.47-2.389-.47Z" clip-rule="evenodd"/>
  <path fill="#000" d="m7.745 55.675 3.481-10.464h4.151l3.487 10.447L21.84 45.21h4.151L21.67 59.302h-5.06l-3.31-9.675-3.325 9.675H4.933L.593 45.21h4.17l2.982 10.464Z"/>
  <path fill="#000" fill-rule="evenodd" d="M53.587 45.211c1.087 0 2.035.194 2.844.583.809.375 1.44.901 1.895 1.578.455.663.683 1.453.683 2.367 0 .89-.228 1.672-.683 2.349-.455.676-1.086 1.203-1.895 1.578a5.64 5.64 0 0 1-1.014.354l4.085 5.283h-4.55l-3.82-5.073h-2.055v5.073h-3.924V45.21h8.434Zm-4.51 6.163h3.96c.633 0 1.126-.144 1.48-.433.353-.288.53-.688.53-1.202 0-.526-.177-.927-.53-1.202-.354-.288-.847-.433-1.48-.433h-3.96v3.27Zm19.27-6.163c1.68 0 3.153.294 4.416.883 1.276.576 2.262 1.397 2.957 2.462.708 1.052 1.062 2.286 1.062 3.7 0 1.416-.354 2.656-1.062 3.721-.695 1.052-1.68 1.873-2.957 2.462-1.264.576-2.736.864-4.416.864h-7.09V45.21h7.09Zm-3.185 10.635h3.488c.846 0 1.58-.144 2.198-.433.632-.3 1.119-.72 1.46-1.258.341-.539.512-1.172.512-1.898 0-.74-.17-1.372-.512-1.898-.341-.539-.828-.952-1.46-1.24-.619-.3-1.352-.451-2.198-.451h-3.488v7.178Z" clip-rule="evenodd"/>
  <path fill="#000" d="m84.165 50.599 4.258-5.388h4.36l-6.635 8.356v5.736h-3.942v-5.677l-6.672-8.415h4.359l4.272 5.388Z"/>
  <defs>
    <clipPath id="a">
      <path fill="#fff" d="M28.433 35.229V0h35.541v35.229z"/>
    </clipPath>
  </defs>
</svg>
