<svg xmlns="http://www.w3.org/2000/svg" width="33" height="33" fill="none" viewBox="0 0 33 33">
  <path fill="#28A7E7" fill-rule="evenodd" d="M3.169 14.82c8.293-3.522 13.836-5.798 16.63-6.915 7.894-3.179 9.535-3.737 10.6-3.78.22 0 .753.043 1.108.3.266.215.355.516.399.73.044.216.089.688.044 1.075-.443 4.338-2.261 14.947-3.237 19.8-.4 2.062-1.197 2.75-1.951 2.835-1.641.13-2.927-1.073-4.524-2.061-2.483-1.59-3.902-2.577-6.342-4.124-2.794-1.804-.975-2.791.621-4.38.4-.43 7.717-6.83 7.85-7.432 0-.085.044-.343-.133-.472-.178-.129-.4-.086-.577-.043-.266.043-4.257 2.62-12.018 7.688-1.153.774-2.173 1.117-3.104 1.117-1.02 0-2.972-.558-4.435-1.03-1.774-.559-3.193-.86-3.06-1.805.089-.472.798-.988 2.129-1.503Z" clip-rule="evenodd"/>
</svg>
