<svg width="48" height="48" viewBox="0 0 48 48" fill="none" xmlns="http://www.w3.org/2000/svg">
<rect width="48" height="48" fill="#F5F5F5"/>
<rect width="502" height="80" transform="translate(-114 -18)" fill="white"/>
<circle cx="24" cy="24" r="20" fill="#F4D673"/>
<circle opacity="0.4" cx="24" cy="24" r="20" fill="url(#paint0_linear_576_5383)"/>
<circle cx="24" cy="24" r="20" stroke="#E2A337" stroke-width="4"/>
<circle opacity="0.5" cx="24" cy="24" r="17" stroke="url(#paint1_linear_576_5383)" stroke-width="2"/>
<g filter="url(#filter0_d_576_5383)">
<path d="M23.0697 14.3587C23.4027 13.5146 24.5973 13.5146 24.9303 14.3587L27.2348 20.2019C27.3364 20.4596 27.5404 20.6636 27.7981 20.7652L33.6413 23.0697C34.4854 23.4027 34.4854 24.5973 33.6413 24.9303L27.7981 27.2348C27.5404 27.3364 27.3364 27.5404 27.2348 27.7981L24.9303 33.6413C24.5973 34.4854 23.4027 34.4854 23.0697 33.6413L20.7652 27.7981C20.6636 27.5404 20.4596 27.3364 20.2019 27.2348L14.3587 24.9303C13.5146 24.5973 13.5146 23.4027 14.3587 23.0697L20.2019 20.7652C20.4596 20.6636 20.6636 20.4596 20.7652 20.2019L23.0697 14.3587Z" fill="white"/>
<path d="M26.3047 20.5684C26.508 21.0838 26.9162 21.492 27.4316 21.6953L33.2744 24L27.4316 26.3047C26.9162 26.508 26.508 26.9162 26.3047 27.4316L24 33.2744L21.6953 27.4316C21.492 26.9162 21.0838 26.508 20.5684 26.3047L14.7256 24L20.5684 21.6953C21.0838 21.492 21.492 21.0838 21.6953 20.5684L24 14.7256L26.3047 20.5684Z" stroke="url(#paint2_linear_576_5383)" stroke-width="2"/>
</g>
<defs>
<filter id="filter0_d_576_5383" x="9.72562" y="11.7256" width="28.5488" height="28.5488" filterUnits="userSpaceOnUse" color-interpolation-filters="sRGB">
<feFlood flood-opacity="0" result="BackgroundImageFix"/>
<feColorMatrix in="SourceAlpha" type="matrix" values="0 0 0 0 0 0 0 0 0 0 0 0 0 0 0 0 0 0 127 0" result="hardAlpha"/>
<feOffset dy="2"/>
<feGaussianBlur stdDeviation="2"/>
<feComposite in2="hardAlpha" operator="out"/>
<feColorMatrix type="matrix" values="0 0 0 0 0.5 0 0 0 0 0.5 0 0 0 0 0.5 0 0 0 0.5 0"/>
<feBlend mode="normal" in2="BackgroundImageFix" result="effect1_dropShadow_576_5383"/>
<feBlend mode="normal" in="SourceGraphic" in2="effect1_dropShadow_576_5383" result="shape"/>
</filter>
<linearGradient id="paint0_linear_576_5383" x1="4" y1="4" x2="44" y2="44" gradientUnits="userSpaceOnUse">
<stop stop-color="white" stop-opacity="0"/>
<stop offset="0.254808" stop-color="white" stop-opacity="0"/>
<stop offset="0.5" stop-color="white"/>
<stop offset="0.5" stop-color="white" stop-opacity="0"/>
</linearGradient>
<linearGradient id="paint1_linear_576_5383" x1="24" y1="6" x2="24" y2="42" gradientUnits="userSpaceOnUse">
<stop stop-color="white"/>
<stop offset="1" stop-color="white" stop-opacity="0"/>
</linearGradient>
<linearGradient id="paint2_linear_576_5383" x1="24" y1="12" x2="24" y2="36" gradientUnits="userSpaceOnUse">
<stop stop-color="white" stop-opacity="0"/>
<stop offset="1" stop-color="#F0F0F0"/>
</linearGradient>
</defs>
</svg>
