<svg width="51" height="51" viewBox="0 0 51 51" fill="none" xmlns="http://www.w3.org/2000/svg">
<rect width="51" height="51" fill="#F5F5F5"/>
<rect width="502" height="80" transform="translate(-432.828 -16.6323)" fill="white"/>
<path opacity="0.5" d="M13.7614 47.6378C12.833 47.7818 11.9296 47.2602 11.5901 46.3842L8.15397 37.5187C8.04331 37.2332 7.86859 36.9769 7.64325 36.7696L0.645952 30.3321C-0.0454232 29.696 -0.200902 28.6645 0.272274 27.8529L5.06121 19.6388C5.21543 19.3743 5.30685 19.0779 5.32844 18.7725L5.99876 9.28806C6.065 8.35093 6.77454 7.58623 7.70409 7.45015L17.1119 6.07292C17.4149 6.02857 17.7036 5.91525 17.9559 5.7417L25.7891 0.352317C26.563 -0.180186 27.6033 -0.102229 28.2893 0.53968L35.2317 7.03634C35.4553 7.24555 35.7239 7.40064 36.0169 7.48965L45.1144 10.2537C46.0132 10.5268 46.6009 11.3887 46.5267 12.3252L45.776 21.8036C45.7518 22.1089 45.798 22.4156 45.9111 22.7001L49.4223 31.5362C49.7692 32.4092 49.4617 33.4061 48.6833 33.932L40.8047 39.2547C40.551 39.4261 40.34 39.6535 40.188 39.9193L35.4689 48.1737C35.0026 48.9893 34.0316 49.3704 33.135 49.0897L24.0613 46.2486C23.7691 46.1571 23.4598 46.1339 23.1572 46.1808L13.7614 47.6378Z" fill="#F5A9AA"/>
<path opacity="0.2" d="M36.7036 2.88631C37.632 2.74236 38.5354 3.26395 38.8749 4.13991L42.3503 13.1067C42.461 13.3922 42.6357 13.6485 42.861 13.8558L49.9383 20.3669C50.6297 21.003 50.7852 22.0345 50.312 22.8461L45.4683 31.154C45.3141 31.4185 45.2227 31.7149 45.2011 32.0204L44.5231 41.6132C44.4569 42.5503 43.7473 43.315 42.8178 43.4511L33.3024 44.8441C32.9995 44.8884 32.7107 45.0018 32.4585 45.1753L24.5358 50.6263C23.7618 51.1588 22.7215 51.0808 22.0356 50.4389L15.0138 43.868C14.7902 43.6588 14.5216 43.5037 14.2286 43.4147L5.02718 40.6191C4.12829 40.346 3.54065 39.4841 3.61483 38.5476L4.37415 28.9608C4.39833 28.6556 4.3521 28.3489 4.23903 28.0643L0.687695 19.1273C0.340766 18.2542 0.648251 17.2574 1.4267 16.7315L9.39536 11.3479C9.64907 11.1765 9.86004 10.9491 10.012 10.6833L14.785 2.33463C15.2513 1.51905 16.2224 1.13793 17.1189 1.41864L26.2963 4.29218C26.5885 4.38367 26.8979 4.40685 27.2004 4.35993L36.7036 2.88631Z" fill="#FEBDBE"/>
<circle cx="25.1715" cy="25.3677" r="20" fill="#FEBDBE"/>
<circle opacity="0.4" cx="25.1715" cy="25.3677" r="20" fill="url(#paint0_linear_576_5383)"/>
<circle cx="25.1715" cy="25.3677" r="20" stroke="#EC8F90" stroke-width="4"/>
<circle opacity="0.5" cx="25.1715" cy="25.3677" r="17" stroke="url(#paint1_linear_576_5383)" stroke-width="2"/>
<g filter="url(#filter0_d_576_5383)">
<path d="M24.3015 12.9031C24.6846 12.2271 25.6585 12.2271 26.0416 12.9031L28.4742 17.1961C28.6798 17.559 29.0892 17.7562 29.5012 17.6907L34.3743 16.916C35.1417 16.794 35.7489 17.5554 35.4592 18.2764L33.6195 22.8549C33.464 23.242 33.5651 23.685 33.8732 23.9663L37.5172 27.2932C38.091 27.817 37.8743 28.7666 37.13 28.9896L32.4034 30.4059C32.0038 30.5257 31.7205 30.8809 31.6927 31.2972L31.3636 36.2205C31.3118 36.9957 30.4343 37.4183 29.7959 36.9755L25.7415 34.1631C25.3987 33.9253 24.9443 33.9253 24.6016 34.1631L20.5472 36.9755C19.9088 37.4183 19.0313 36.9957 18.9795 36.2205L18.6504 31.2972C18.6226 30.8809 18.3393 30.5257 17.9397 30.4059L13.213 28.9896C12.4687 28.7666 12.252 27.817 12.8258 27.2932L16.4699 23.9663C16.7779 23.685 16.8791 23.242 16.7235 22.8549L14.8839 18.2764C14.5942 17.5554 15.2014 16.794 15.9688 16.916L20.8418 17.6907C21.2538 17.7562 21.6632 17.559 21.8689 17.1961L24.3015 12.9031Z" fill="white"/>
<path d="M27.6041 17.689C28.0154 18.4148 28.834 18.8091 29.6579 18.6783L34.5309 17.9039L32.692 22.482C32.381 23.2561 32.5828 24.1421 33.1989 24.7047L36.8434 28.0318L32.1159 29.4478C31.317 29.6874 30.7508 30.3979 30.695 31.23L30.3659 36.1539L26.3112 33.3414C25.6257 32.866 24.7173 32.866 24.0319 33.3414L19.9772 36.1539L19.6481 31.23C19.5923 30.3979 19.0261 29.6874 18.2272 29.4478L13.4997 28.0318L17.1442 24.7047C17.7603 24.1421 17.9621 23.2561 17.651 22.482L15.8122 17.9039L20.6852 18.6783C21.5091 18.8091 22.3276 18.4148 22.7389 17.689L25.1715 13.3961L27.6041 17.689Z" stroke="url(#paint2_linear_576_5383)" stroke-width="2"/>
</g>
<path d="M23.8807 21.13C24.3174 20.5339 24.5357 20.2358 24.8048 20.1297C25.0405 20.0369 25.3026 20.0369 25.5382 20.1297C25.8073 20.2358 26.0257 20.5339 26.4623 21.13L28.8737 24.4223C29.1225 24.7619 29.2468 24.9317 29.2949 25.1175C29.3373 25.2816 29.3373 25.4538 29.2949 25.6179C29.2468 25.8038 29.1225 25.9736 28.8737 26.3132L26.4623 29.6054C26.0257 30.2016 25.8073 30.4996 25.5382 30.6057C25.3026 30.6986 25.0405 30.6986 24.8048 30.6057C24.5357 30.4996 24.3174 30.2016 23.8807 29.6054L21.4693 26.3132C21.2206 25.9736 21.0962 25.8038 21.0482 25.6179C21.0058 25.4538 21.0058 25.2816 21.0482 25.1175C21.0962 24.9317 21.2206 24.7619 21.4693 24.4223L23.8807 21.13Z" fill="#EC8F90"/>
<defs>
<filter id="filter0_d_576_5383" x="8.49958" y="10.3961" width="33.3439" height="32.759" filterUnits="userSpaceOnUse" color-interpolation-filters="sRGB">
<feFlood flood-opacity="0" result="BackgroundImageFix"/>
<feColorMatrix in="SourceAlpha" type="matrix" values="0 0 0 0 0 0 0 0 0 0 0 0 0 0 0 0 0 0 127 0" result="hardAlpha"/>
<feOffset dy="2"/>
<feGaussianBlur stdDeviation="2"/>
<feComposite in2="hardAlpha" operator="out"/>
<feColorMatrix type="matrix" values="0 0 0 0 0.5 0 0 0 0 0.5 0 0 0 0 0.5 0 0 0 0.5 0"/>
<feBlend mode="normal" in2="BackgroundImageFix" result="effect1_dropShadow_576_5383"/>
<feBlend mode="normal" in="SourceGraphic" in2="effect1_dropShadow_576_5383" result="shape"/>
</filter>
<linearGradient id="paint0_linear_576_5383" x1="5.17153" y1="5.36774" x2="45.1715" y2="45.3677" gradientUnits="userSpaceOnUse">
<stop stop-color="white" stop-opacity="0"/>
<stop offset="0.254808" stop-color="white" stop-opacity="0"/>
<stop offset="0.5" stop-color="white"/>
<stop offset="0.5" stop-color="white" stop-opacity="0"/>
</linearGradient>
<linearGradient id="paint1_linear_576_5383" x1="25.1715" y1="7.36774" x2="25.1715" y2="43.3677" gradientUnits="userSpaceOnUse">
<stop stop-color="white"/>
<stop offset="1" stop-color="white" stop-opacity="0"/>
</linearGradient>
<linearGradient id="paint2_linear_576_5383" x1="25.1715" y1="11.3677" x2="25.1715" y2="39.3677" gradientUnits="userSpaceOnUse">
<stop stop-color="white" stop-opacity="0"/>
<stop offset="1" stop-color="#F0F0F0"/>
</linearGradient>
</defs>
</svg>
